<?xml version="1.0" encoding="UTF-8" standalone="no"?>
<svg
   xmlns:dc="http://purl.org/dc/elements/1.1/"
   xmlns:cc="http://creativecommons.org/ns#"
   xmlns:rdf="http://www.w3.org/1999/02/22-rdf-syntax-ns#"
   xmlns:svg="http://www.w3.org/2000/svg"
   xmlns="http://www.w3.org/2000/svg"
   viewBox="0 0 1094.7373 561.95068"
   height="561.95068"
   width="1094.7373"
   xml:space="preserve"
   id="svg2"
   version="1.1"><metadata
     id="metadata8"><rdf:RDF><cc:Work
         rdf:about=""><dc:format>image/svg+xml</dc:format><dc:type
           rdf:resource="http://purl.org/dc/dcmitype/StillImage" /></cc:Work></rdf:RDF></metadata><defs
     id="defs6"><clipPath
       id="clipPath18"
       clipPathUnits="userSpaceOnUse"><path
         id="path16"
         d="M 0,421.463 H 821.053 V 0 H 0 Z" /></clipPath></defs><g
     transform="matrix(1.3333333,0,0,-1.3333333,0,561.95067)"
     id="g10"><g
       id="g12"><g
         clip-path="url(#clipPath18)"
         id="g14"><g
           transform="translate(647.6502,115.3243)"
           id="g20"><path
             id="path22"
             style="fill:#2b2b2a;fill-opacity:1;fill-rule:nonzero;stroke:none"
             d="m 0,0 -2.535,1.832 18.054,0.345 0.832,0.965 c 0.899,1.043 1.129,3.174 0.481,4.389 -0.738,1.375 -1.617,1.529 -9.985,1.724 -7.207,0.163 -8.265,0.262 -9.648,0.893 -2.477,1.137 -2.906,1.84 -3.051,4.994 -0.144,3.171 0.235,4.35 1.86,5.776 1.742,1.531 3.617,1.759 14.535,1.759 h 9.863 L 17.871,20.781 15.34,18.888 H 8.32 c -8.058,0 -8.863,-0.197 -9.246,-2.24 C -1.254,14.91 -0.86,13.785 0.328,13.063 1.23,12.513 2.402,12.402 9.019,12.25 17.621,12.048 19.633,11.66 21.086,9.938 22.144,8.677 22.504,6.277 22.015,3.728 21.554,1.298 20.828,0.313 18.715,-0.75 17.09,-1.565 16.679,-1.608 9.777,-1.719 L 2.539,-1.832 Z m -19.336,14.5 c 0,4.063 -1.192,4.731 -8.442,4.731 -7.156,0 -8.316,-0.645 -8.695,-4.813 l -0.187,-2.077 h 17.324 z M -34.774,-1.401 c -3.07,0.51 -4.855,1.656 -5.961,3.819 -0.578,1.13 -0.652,2.091 -0.652,8.13 0,6.465 0.043,6.936 0.781,8.331 0.567,1.07 1.313,1.781 2.672,2.556 l 1.887,1.07 7.305,0.112 c 8.562,0.137 10.257,-0.172 12.461,-2.276 1.714,-1.634 2.105,-3.078 2.109,-7.742 l 0.004,-3.703 H -36.66 l 0.191,-2.083 c 0.102,-1.14 0.445,-2.472 0.762,-2.957 1.117,-1.704 2.117,-1.852 12.402,-1.852 h 9.492 l 2.407,-1.749 C -10.082,-0.711 -9,-1.562 -9,-1.641 c 0,-0.285 -23.977,-0.061 -25.77,0.24 z m -61.05,11.846 v 12.232 h 5.168 v -2.531 l 0.781,0.729 c 1.601,1.509 3.004,1.802 8.597,1.793 5.797,-0.008 7.383,-0.401 8.786,-2.19 l 0.714,-0.908 1.176,1.176 c 1.711,1.711 3.258,2.004 9.914,1.871 5.633,-0.112 5.77,-0.133 7.207,-1.086 2.645,-1.75 2.774,-2.383 2.782,-13.586 l 0.007,-9.729 h -5.168 v 8.972 c 0,9.773 -0.156,10.691 -1.933,11.368 -0.477,0.182 -3.024,0.332 -5.664,0.332 h -4.793 l -1.125,-1.009 -1.125,-1.004 -0.102,-9.332 -0.105,-9.327 h -5.133 v 18.655 l -2.016,2.017 h -5.175 c -4.872,0 -5.227,-0.047 -6.075,-0.779 -0.496,-0.428 -1.039,-1.389 -1.215,-2.152 -0.175,-0.758 -0.324,-5.061 -0.328,-9.561 l -0.007,-8.18 h -5.168 z m -14.473,-4.652 v 4.134 h -7.184 c -7.422,0 -9.086,-0.239 -9.703,-1.392 -0.484,-0.901 -0.418,-4.914 0.094,-5.612 0.738,-1.009 2.266,-1.203 9.644,-1.235 l 7.149,-0.028 z m -17.172,-7.211 c -1.879,0.371 -3.387,1.242 -4.324,2.5 -0.629,0.845 -0.727,1.449 -0.727,4.649 0,4.247 0.371,5.11 2.727,6.372 1.332,0.71 1.918,0.76 10.453,0.867 l 9.043,0.108 v 1.693 c 0,1.381 -0.184,1.897 -1.004,2.815 l -1.004,1.125 -6.66,0.177 -6.664,0.172 -2.238,1.668 c -1.231,0.918 -2.313,1.742 -2.407,1.832 -0.093,0.088 4.246,0.113 9.645,0.053 8.535,-0.1 9.996,-0.195 11.191,-0.729 1.825,-0.821 2.887,-1.845 3.66,-3.517 0.567,-1.229 0.637,-2.375 0.645,-10.764 l 0.004,-9.387 -10.422,0.034 c -5.73,0.021 -11.094,0.173 -11.918,0.332 m -67.586,15.738 c -0.012,4.219 -1.187,4.908 -8.363,4.911 -7.262,0 -8.453,-0.628 -8.774,-4.636 l -0.179,-2.254 h 17.32 z m -15.43,-15.721 c -3.074,0.51 -4.859,1.656 -5.964,3.819 -0.575,1.134 -0.653,2.091 -0.653,8.242 0,6.742 0.028,7.004 0.836,8.383 0.559,0.953 1.445,1.767 2.672,2.445 l 1.832,1.017 7.305,0.112 c 8.562,0.137 10.258,-0.172 12.461,-2.276 1.715,-1.634 2.109,-3.078 2.109,-7.742 l 0.004,-3.703 h -22.395 V 7.259 c 0,-2.153 0.907,-3.9 2.415,-4.653 1.015,-0.507 2.199,-0.602 7.535,-0.602 H -196 l 2.285,-1.602 c 1.254,-0.881 2.43,-1.734 2.609,-1.898 0.43,-0.383 -17.015,-0.301 -19.379,0.095 m -33.492,11.846 v 12.232 h 5.168 v -2.474 l 1.047,0.879 c 1.551,1.306 3.086,1.591 8.594,1.591 l 4.988,0.004 -2.562,-1.867 -2.559,-1.865 -3.75,-0.117 c -3.617,-0.108 -3.777,-0.147 -4.582,-1.082 l -0.828,-0.965 V -1.784 h -5.516 z m -14.469,-4.652 v 4.134 h -7.183 c -9.692,0 -10.043,-0.15 -10.043,-4.224 0,-1.844 0.125,-2.319 0.773,-2.918 0.426,-0.389 1.086,-0.789 1.465,-0.879 0.379,-0.093 3.906,-0.186 7.84,-0.207 l 7.148,-0.039 z m -17.113,-7.219 c -2.082,0.41 -3.496,1.239 -4.262,2.496 -0.55,0.908 -0.671,1.743 -0.675,4.654 0,4.214 0.402,5.229 2.504,6.354 1.39,0.742 1.882,0.781 10.504,0.892 l 9.042,0.108 v 1.693 c 0,1.381 -0.183,1.897 -1.003,2.815 l -1.004,1.125 -6.493,0.109 -6.492,0.107 -5.148,3.75 h 9.144 c 10.243,0 11.789,-0.242 13.981,-2.164 2.113,-1.857 2.183,-2.275 2.183,-12.814 v -9.483 l -10.421,0.034 c -5.735,0.021 -11.071,0.168 -11.86,0.324 m -36.515,-0.051 c -2.633,0.672 -4.414,2.365 -4.957,4.711 -0.172,0.747 -0.317,5.422 -0.321,10.4 l -0.008,9.043 h 5.133 l 0.106,-9.297 0.101,-9.294 0.953,-0.957 0.954,-0.952 6.109,-0.099 c 5.305,-0.086 6.269,-0.015 7.316,0.517 1.86,0.948 2.024,1.875 2.047,11.553 l 0.02,8.529 h 5.168 V -1.784 h -5.168 l -0.012,1.461 c -0.008,1.168 -0.082,1.344 -0.363,0.858 -0.192,-0.332 -1.004,-0.944 -1.797,-1.362 -1.317,-0.689 -2.016,-0.767 -7.82,-0.841 -3.504,-0.047 -6.864,0.039 -7.461,0.191 m -80.051,-0.031 c 0,0.181 0.84,1.043 1.863,1.918 l 1.863,1.594 h 9.075 c 10.605,0 11.265,0.144 11.781,2.599 0.215,1.018 0.152,1.729 -0.231,2.647 -0.73,1.75 -1.882,1.984 -9.722,1.984 -9.227,0.004 -11.633,0.693 -12.766,3.654 -0.715,1.875 -0.508,5.125 0.434,6.768 0.39,0.685 1.316,1.461 2.359,1.986 1.711,0.858 1.762,0.863 12.57,0.944 l 10.852,0.087 -2.066,-1.896 -2.067,-1.889 h -7.793 c -7.359,0 -7.84,-0.039 -8.699,-0.715 -0.754,-0.595 -0.906,-0.992 -0.906,-2.353 0,-1.316 0.175,-1.803 0.886,-2.471 0.871,-0.822 1.051,-0.84 8.7,-1.056 8.187,-0.227 9.078,-0.34 11.164,-1.383 1.761,-0.883 2.332,-2.147 2.332,-5.164 0,-3.59 -0.821,-5.14 -3.383,-6.397 l -1.957,-0.961 -12.145,-0.111 c -7.492,-0.07 -12.144,0.012 -12.144,0.215 m -45.133,11.953 v 12.232 h 5.168 v -2.474 l 1.043,0.879 c 1.621,1.363 3.101,1.591 10.324,1.582 7.285,-0.004 8.547,-0.266 10.227,-2.098 1.383,-1.503 1.488,-2.402 1.488,-12.553 v -9.797 h -4.824 l -0.008,8.18 c -0.004,4.5 -0.152,8.803 -0.324,9.561 -0.18,0.774 -0.723,1.728 -1.242,2.172 -0.907,0.781 -1.04,0.794 -7.801,0.691 l -6.879,-0.104 -0.832,-0.97 -0.828,-0.965 V -1.784 h -5.512 z m -14.129,3.775 c 0,2.221 -0.469,3.401 -1.687,4.229 -1.317,0.896 -10.813,1.099 -12.961,0.279 -1.801,-0.685 -2.578,-2.082 -2.578,-4.629 v -1.758 h 17.226 z m -15.848,-15.532 c -2.121,0.468 -3.238,0.989 -4.425,2.066 -1.68,1.523 -1.903,2.441 -2.055,8.505 -0.18,7.25 0.172,9.176 2.019,11.022 2.157,2.157 3.805,2.465 12.473,2.332 l 7.32,-0.108 1.891,-1.035 c 2.914,-1.595 3.559,-3.035 3.738,-8.357 l 0.141,-4.217 h -22.559 l 0.141,-2.223 c 0.098,-1.567 0.34,-2.442 0.816,-2.974 1.387,-1.557 2.348,-1.695 11.692,-1.695 h 8.801 l 2.406,-1.749 c 1.324,-0.966 2.41,-1.817 2.41,-1.896 0,-0.371 -23.035,-0.061 -24.809,0.329 m -22.05,-0.239 c -3.125,0.525 -5.332,1.947 -6.59,4.242 -0.367,0.672 -0.496,3.482 -0.578,12.665 -0.059,6.489 -0.008,11.796 0.113,11.796 0.121,0 1.375,-1.006 2.785,-2.238 l 2.57,-2.237 h 8.934 v -3.103 h -8.957 v -7.426 c 0,-8.484 0.129,-9.019 2.406,-9.928 0.77,-0.31 1.668,-0.564 1.996,-0.564 0.325,0 1.758,-0.772 3.18,-1.718 l 2.582,-1.722 -3.789,0.047 c -2.086,0.022 -4.18,0.108 -4.652,0.186 m 157.453,11.996 v 8.443 h -6.977 c -6.363,0 -7.074,-0.064 -8.105,-0.693 -0.621,-0.379 -1.278,-1.086 -1.465,-1.57 -0.496,-1.312 -0.426,-11.284 0.09,-12.418 0.832,-1.828 2.441,-2.186 9.824,-2.194 l 6.633,-0.009 z m 2.402,-14.674 -2.594,2.367 -7.742,0.168 c -4.301,0.092 -8.297,0.34 -8.988,0.557 -1.899,0.594 -3.484,1.81 -4.344,3.322 -0.73,1.293 -0.773,1.756 -0.777,8.182 -0.008,7.633 0.148,8.367 2.176,10.146 2.226,1.957 3.656,2.164 14.933,2.164 h 10.102 V 8.031 c 0,-8.05 -0.039,-14.635 -0.086,-14.633 -0.047,0.004 -1.254,1.072 -2.68,2.373 m 182.613,15.553 v 7.603 l -7.265,-0.107 -7.262,-0.104 -1.004,-1.13 -1.008,-1.125 v -5.12 c 0,-7.439 0.188,-7.574 10.25,-7.599 l 6.289,-0.014 z m -37.695,-19.031 -2.379,1.613 18.574,0.172 c 17.032,0.16 18.668,0.224 19.707,0.793 1.309,0.715 1.793,1.75 1.793,3.832 v 1.482 l -7.492,0.19 c -8.164,0.203 -10.219,0.574 -12.14,2.195 -2.067,1.736 -2.247,2.451 -2.247,8.908 0,5.604 0.04,5.924 0.864,7.41 0.676,1.218 1.301,1.768 2.929,2.582 l 2.067,1.035 10.781,0.101 10.781,0.105 -0.101,-13.366 c -0.102,-13.239 -0.11,-13.384 -0.895,-14.754 -0.437,-0.763 -1.34,-1.759 -2.011,-2.22 -2.293,-1.569 -4.235,-1.725 -21.657,-1.707 l -16.191,0.013 z" /></g><g
           transform="translate(381.2913,293.6661)"
           id="g24"><path
             id="path26"
             style="fill:#dc2528;fill-opacity:1;fill-rule:nonzero;stroke:none"
             d="m 0,0 -17.21,-17.21 3.71,-3.72 17.22,17.22 z m 3.4,-37.83 h 17.22 v 17.22 z m -42.42,-8.62 25.52,-25.52 16.9,16.9 v 17.24 l -16.9,16.9 z m 76.87,8.62 h 17.22 l -17.21,17.22 -0.01,-0.01 z m -34.13,34.12 16.9,-16.9 h 17.24 l 16.9,16.9 -25.52,25.521 z M 58.47,0 l -3.71,-3.71 17.21,-17.22 3.71,3.72 z m 13.5,-20.93 -16.89,-16.89 v -17.26 l 16.89,-16.89 25.52,25.52 z M 0,-92.89 l 3.71,3.71 -17.21,17.21 -3.71,-3.71 z m 20.61,20.6 -16.89,-16.89 25.52,-25.52 25.52,25.52 -16.89,16.89 z m 17.25,0.01 17.21,17.21 -0.01,0.01 H 37.85 v -17.21 z m 16.9,-16.9 3.71,-3.72 17.22,17.211 -3.72,3.719 z M 3.41,-55.07 20.62,-72.28 v 17.22 H 3.41 Z m 17.21,0.01 h 17.23 v 17.229 H 20.62 Z" /></g></g></g></g></svg>